<svg id="Groupe_348" data-name="Groupe 348" xmlns="http://www.w3.org/2000/svg" width="297.666" height="207.102" viewBox="0 0 297.666 207.102">
  <ellipse id="Ellipse_39" data-name="Ellipse 39" cx="59.308" cy="4.504" rx="59.308" ry="4.504" transform="translate(0 198.093)" fill="#e6e6e6"/>
  <path id="Tracé_2530" data-name="Tracé 2530" d="M324.272,244.012c10.321-4.39,23.177-1.609,35.732.322.117-2.338,1.533-5.183.05-6.814-1.8-1.982-1.636-4.063-.552-6.157,2.773-5.355-1.2-11.052-5.212-15.79a8.885,8.885,0,0,0-7.416-3.112l-7.431.531a8.9,8.9,0,0,0-7.9,6.361h0c-1.774,2.413-2.724,4.82-2.126,7.214-2.658,1.816-3.1,4.009-1.91,6.48a3.725,3.725,0,0,1-.046,4.544,20.979,20.979,0,0,0-3.119,6.2Z" transform="translate(-278.938 -198.059)" fill="#2f2e41"/>
  <path id="Tracé_2531" data-name="Tracé 2531" d="M615.916,628.3H405.554a7.054,7.054,0,0,1-7.054-7.053h0q114.384-13.294,224.469,0h0a7.054,7.054,0,0,1-7.053,7.053Z" transform="translate(-325.303 -449.263)" fill="#2f2e41"/>
  <path id="Tracé_2532" data-name="Tracé 2532" d="M622.969,384.161,398.5,383.746l26.015-43.774.124-.207V243.293a8.916,8.916,0,0,1,8.917-8.917H586.668a8.916,8.916,0,0,1,8.917,8.917v97.135Z" transform="translate(-325.303 -211.764)" fill="#3f3d56"/>
  <path id="Tracé_2533" data-name="Tracé 2533" d="M486.517,250.957a2.908,2.908,0,0,0-2.9,2.9v87.962a2.908,2.908,0,0,0,2.9,2.9H641.281a2.908,2.908,0,0,0,2.9-2.9V253.861a2.908,2.908,0,0,0-2.9-2.9Z" transform="translate(-378.468 -222.12)" fill="#fff"/>
  <path id="Tracé_2534" data-name="Tracé 2534" d="M477.667,531.718a1.248,1.248,0,0,0-1.131.724l-8.016,17.426a1.245,1.245,0,0,0,1.131,1.765H638.225a1.245,1.245,0,0,0,1.113-1.8l-8.713-17.426a1.239,1.239,0,0,0-1.113-.688Z" transform="translate(-368.969 -397.493)" fill="#2f2e41"/>
  <circle id="Ellipse_40" data-name="Ellipse 40" cx="1.867" cy="1.867" r="1.867" transform="translate(182.942 23.65)" fill="#fff"/>
  <path id="Tracé_2535" data-name="Tracé 2535" d="M646.283,593.619a1.247,1.247,0,0,0-1.2.921l-2.011,7.469a1.245,1.245,0,0,0,1.2,1.568h38.24a1.244,1.244,0,0,0,1.176-1.652l-2.585-7.469a1.245,1.245,0,0,0-1.176-.838Z" transform="translate(-478.043 -436.158)" fill="#2f2e41"/>
  <path id="Tracé_2536" data-name="Tracé 2536" d="M435.376,337.135v1.659H264.306l.129-.207v-1.452Z" transform="translate(-165.094 -210.586)" fill="#2f2e41"/>
  <circle id="Ellipse_41" data-name="Ellipse 41" cx="29.044" cy="29.044" r="29.044" transform="translate(236.466 0)" fill="#ba9964"/>
  <path id="Tracé_2537" data-name="Tracé 2537" d="M900.082,255.534H876.017a1.661,1.661,0,0,1-1.66-1.66V239.352a1.661,1.661,0,0,1,1.66-1.66h24.065a1.661,1.661,0,0,1,1.66,1.66v14.522A1.661,1.661,0,0,1,900.082,255.534Zm-24.065-16.182v14.522h24.066V239.352Z" transform="translate(-622.54 -213.835)" fill="#fff"/>
  <path id="Tracé_2538" data-name="Tracé 2538" d="M905.875,217.258H890.938v-6.639c0-4.808,3.141-8.3,7.469-8.3s7.468,3.49,7.468,8.3ZM892.6,215.6h11.618v-4.979c0-3.909-2.389-6.639-5.809-6.639s-5.809,2.73-5.809,6.639Z" transform="translate(-632.897 -191.741)" fill="#fff"/>
  <circle id="Ellipse_42" data-name="Ellipse 42" cx="1.66" cy="1.66" r="1.66" transform="translate(263.85 30.704)" fill="#fff"/>
  <path id="Tracé_2539" data-name="Tracé 2539" d="M654.1,364.541H534.494a2.218,2.218,0,0,1-2.215-2.215V332.656a2.218,2.218,0,0,1,2.215-2.215H654.1a2.218,2.218,0,0,1,2.215,2.215v29.669A2.217,2.217,0,0,1,654.1,364.541ZM534.494,331.327a1.33,1.33,0,0,0-1.329,1.329v29.669a1.33,1.33,0,0,0,1.329,1.329H654.1a1.33,1.33,0,0,0,1.329-1.329V332.656a1.33,1.33,0,0,0-1.329-1.329Z" transform="translate(-408.866 -271.769)" fill="#e6e6e6"/>
  <circle id="Ellipse_43" data-name="Ellipse 43" cx="9.022" cy="9.022" r="9.022" transform="translate(135.19 65.561)" fill="#e6e6e6"/>
  <path id="Tracé_2540" data-name="Tracé 2540" d="M640.7,356.8a1.5,1.5,0,1,0,0,3.008h70.891a1.5,1.5,0,0,0,0-3.008Z" transform="translate(-475.651 -288.236)" fill="#e6e6e6"/>
  <path id="Tracé_2541" data-name="Tracé 2541" d="M640.7,380.842a1.5,1.5,0,1,0,0,3.008h30.5a1.5,1.5,0,1,0,0-3.008Z" transform="translate(-475.651 -303.251)" fill="#e6e6e6"/>
  <path id="Tracé_2542" data-name="Tracé 2542" d="M429.763,361.011l-22.11,11.755-.28-9.8a65.482,65.482,0,0,0,20.431-6.717l2.312-5.713a3.873,3.873,0,0,1,6.583-1.005h0a3.873,3.873,0,0,1-.341,5.281Z" transform="translate(-330.846 -282.812)" fill="#ffb8b8"/>
  <path id="Tracé_2543" data-name="Tracé 2543" d="M322.843,538.6h0a4.344,4.344,0,0,1,.551-3.515l4.857-7.454a8.488,8.488,0,0,1,11.011-2.905h0c-2.041,3.475-1.757,6.523.7,9.172a44.157,44.157,0,0,0-10.486,7.149,4.344,4.344,0,0,1-6.639-2.447Z" transform="translate(-277.95 -392.532)" fill="#2f2e41"/>
  <path id="Tracé_2544" data-name="Tracé 2544" d="M401.9,482.966h0a8.334,8.334,0,0,1-7.083,4.046l-32.267.244-1.4-8.116,14.274-4.2-12.035-9.236,13.154-15.393,23.892,22.268A8.334,8.334,0,0,1,401.9,482.966Z" transform="translate(-301.971 -346.645)" fill="#2f2e41"/>
  <path id="Tracé_2545" data-name="Tracé 2545" d="M327.5,501.215h-7.557c-6.785-46.507-13.691-93.144,6.717-110.551l24.069,3.918-3.079,20.431-13.434,15.393Z" transform="translate(-271.961 -309.386)" fill="#2f2e41"/>
  <path id="Tracé_2546" data-name="Tracé 2546" d="M343.231,691h0a4.344,4.344,0,0,1-3.515-.551l-8.2-1.1a8.488,8.488,0,0,1-2.906-11.011h0c3.475,2.041,6.523,1.756,9.172-.706,1.872,3.779,4.955,3.548,7.9,6.732A4.344,4.344,0,0,1,343.231,691Z" transform="translate(-281.052 -488.631)" fill="#2f2e41"/>
  <path id="Tracé_2547" data-name="Tracé 2547" d="M375.885,275.766l-13.994-3.358c2.324-4.757,2.516-10.051,1.4-15.673l9.516-.28A73.058,73.058,0,0,0,375.885,275.766Z" transform="translate(-302.437 -225.555)" fill="#ffb8b8"/>
  <path id="Tracé_2548" data-name="Tracé 2548" d="M365.817,339.669c-10.187,6.942-17.385.237-22.878-10.106.763-6.329-.473-13.9-2.761-22.134a15.066,15.066,0,0,1,9.2-18.168h0l12.035,5.038c10.219,8.33,12.23,17.352,8.4,26.868Z" transform="translate(-288.522 -246.046)" fill="#ba9964"/>
  <path id="Tracé_2549" data-name="Tracé 2549" d="M289.531,307.447l-11.195,5.878,19.871,11.755,2.765,6.82a3.617,3.617,0,0,1-2.173,4.779h0a3.617,3.617,0,0,1-4.79-3.207l-.28-4.753-25.256-8.335a5.906,5.906,0,0,1-3.706-3.608h0a5.906,5.906,0,0,1,2.216-6.87l20.309-13.933Z" transform="translate(-241.551 -250.238)" fill="#ffb8b8"/>
  <path id="Tracé_2550" data-name="Tracé 2550" d="M336,303.649c-4.669-2.046-8.915.177-14.274,1.959l-.84-14.833c5.321-2.836,10.395-3.6,15.113-1.4Z" transform="translate(-276.821 -245.321)" fill="#ba9964"/>
  <circle id="Ellipse_44" data-name="Ellipse 44" cx="8.935" cy="8.935" r="8.935" transform="translate(55.826 20.379)" fill="#ffb8b8"/>
  <path id="Tracé_2551" data-name="Tracé 2551" d="M371.394,235.883c-8.846.866-15.586-.58-19.894-4.7v-3.317h19.144Z" transform="translate(-295.946 -207.697)" fill="#2f2e41"/>
</svg>
